# xmcd CD database file
#
# Track frame offsets:
#	150
#	31409
#	63883
#	91911
#	116506
#	135453
#	151634
#	169532
#	194817
#	230224
#	271628
#	303997
#	321127
#
# Disc length: 4754 seconds
#
# Revision: 0
# Processed by: cddbd v1.5.2PL0 Copyright (c) Steve Scherf et al.
# Submitted via: CDex 1.70beta2
#
DISCID=a312900d
DTITLE=Vari - Coltrane Legacy
DYEAR=2009
DGENRE=Jazz
TTITLE0=McCoy Tyner - India
TTITLE1=Saxophone Summit - Cosmos
TTITLE2=Tommy Flanagan - Giant Steps
TTITLE3=Frank Tusa - Cameo
TTITLE4=Eric Dolphy - Miss Ann
TTITLE5=McCoy Tyner - Pannonica
TTITLE6=Elvin Jones - The Biscuit Man
TTITLE7=Eric Dolphy - The Meeting
TTITLE8=Archie Sheep - Ah-Leu-Cha
TTITLE9=McCoy Tyner - Trane-Like
TTITLE10=Mal Waldron - Charlie Parker's Last Supper
TTITLE11=Eric Dolphy - Night Music
TTITLE12=Elvin Jones - Island Birdie
EXTD=YEAR: 2009
EXTT0=
EXTT1=
EXTT2=
EXTT3=
EXTT4=
EXTT5=
EXTT6=
EXTT7=
EXTT8=
EXTT9=
EXTT10=
EXTT11=
EXTT12=
PLAYORDER=
